<?xml version="1.0" encoding="UTF-8" standalone="no"?>
<!-- Created with Inkscape (http://www.inkscape.org/) -->

<svg
   width="238.959mm"
   height="84.130997mm"
   viewBox="0 0 238.959 84.130997"
   version="1.1"
   id="svg1"
   xml:space="preserve"
   xmlns:xlink="http://www.w3.org/1999/xlink"
   xmlns="http://www.w3.org/2000/svg"
   xmlns:svg="http://www.w3.org/2000/svg"><defs
     id="defs1"><linearGradient
       id="linearGradient24"><stop
         style="stop-color:#fce516;stop-opacity:1;"
         offset="0"
         id="stop24" /><stop
         style="stop-color:#ea571d;stop-opacity:1;"
         offset="1"
         id="stop25" /></linearGradient><linearGradient
       xlink:href="#linearGradient24"
       id="linearGradient25"
       x1="161.17882"
       y1="83.828697"
       x2="162.03386"
       y2="105.92416"
       gradientUnits="userSpaceOnUse" /><linearGradient
       xlink:href="#linearGradient24"
       id="linearGradient42"
       gradientUnits="userSpaceOnUse"
       x1="161.17882"
       y1="83.828697"
       x2="162.03386"
       y2="105.92416" /><linearGradient
       xlink:href="#linearGradient24"
       id="linearGradient43"
       gradientUnits="userSpaceOnUse"
       x1="161.17882"
       y1="83.828697"
       x2="162.03386"
       y2="105.92416" /><linearGradient
       xlink:href="#linearGradient24"
       id="linearGradient44"
       gradientUnits="userSpaceOnUse"
       x1="161.17882"
       y1="83.828697"
       x2="162.03386"
       y2="105.92416" /><linearGradient
       xlink:href="#linearGradient24"
       id="linearGradient45"
       gradientUnits="userSpaceOnUse"
       x1="161.17882"
       y1="83.828697"
       x2="162.03386"
       y2="105.92416" /><linearGradient
       xlink:href="#linearGradient24"
       id="linearGradient46"
       gradientUnits="userSpaceOnUse"
       x1="161.17882"
       y1="83.828697"
       x2="162.03386"
       y2="105.92416" /><linearGradient
       xlink:href="#linearGradient24"
       id="linearGradient47"
       gradientUnits="userSpaceOnUse"
       x1="161.17882"
       y1="83.828697"
       x2="162.03386"
       y2="105.92416" /><linearGradient
       xlink:href="#linearGradient24"
       id="linearGradient48"
       gradientUnits="userSpaceOnUse"
       x1="161.17882"
       y1="83.828697"
       x2="162.03386"
       y2="105.92416" /><linearGradient
       xlink:href="#linearGradient24"
       id="linearGradient49"
       gradientUnits="userSpaceOnUse"
       x1="161.17882"
       y1="83.828697"
       x2="162.03386"
       y2="105.92416" /><linearGradient
       xlink:href="#linearGradient24"
       id="linearGradient50"
       gradientUnits="userSpaceOnUse"
       x1="161.17882"
       y1="83.828697"
       x2="162.03386"
       y2="105.92416" /><linearGradient
       xlink:href="#linearGradient24"
       id="linearGradient51"
       gradientUnits="userSpaceOnUse"
       x1="161.17882"
       y1="83.828697"
       x2="162.03386"
       y2="105.92416" /><linearGradient
       xlink:href="#linearGradient24"
       id="linearGradient52"
       gradientUnits="userSpaceOnUse"
       x1="161.17882"
       y1="83.828697"
       x2="162.03386"
       y2="105.92416" /><linearGradient
       xlink:href="#linearGradient24"
       id="linearGradient53"
       gradientUnits="userSpaceOnUse"
       x1="161.17882"
       y1="83.828697"
       x2="162.03386"
       y2="105.92416" /><linearGradient
       xlink:href="#linearGradient24"
       id="linearGradient54"
       gradientUnits="userSpaceOnUse"
       x1="161.17882"
       y1="83.828697"
       x2="162.03386"
       y2="105.92416" /><linearGradient
       xlink:href="#linearGradient24"
       id="linearGradient55"
       gradientUnits="userSpaceOnUse"
       x1="161.17882"
       y1="83.828697"
       x2="162.03386"
       y2="105.92416" /><linearGradient
       xlink:href="#linearGradient24"
       id="linearGradient56"
       gradientUnits="userSpaceOnUse"
       x1="161.17882"
       y1="83.828697"
       x2="162.03386"
       y2="105.92416" /></defs><g
     id="layer3"
     transform="matrix(1.7843305,0,0,1.7843305,-160.95045,-113.68856)"><g
       id="layer3-2"
       transform="translate(1.8613235,1.7791535)"
       style="fill:#b1b5bb;fill-opacity:1"><g
         id="g24-4-5"
         style="fill:#b1b5bb;fill-opacity:1;stroke:#23191f;stroke-width:0;stroke-linecap:square;stroke-linejoin:bevel;stroke-dasharray:none;stroke-opacity:1;paint-order:normal"
         transform="matrix(1.0379681,0,0,1.1311973,-3.1777849,-14.571872)"><path
           style="fill:#b1b5bb;fill-opacity:1;stroke:#23191f;stroke-width:0;stroke-linecap:square;stroke-linejoin:bevel;stroke-dasharray:none;stroke-opacity:1;paint-order:normal"
           d="m 92.067339,70.891413 9.105151,31.877057 7.77034,-0.0166 -3.33623,-22.140833 -8.238689,-8.243283 z"
           id="path2-8-4" /><path
           style="fill:#b1b5bb;fill-opacity:1;stroke:#23191f;stroke-width:0;stroke-linecap:square;stroke-linejoin:bevel;stroke-dasharray:none;stroke-opacity:1;paint-order:normal"
           d="m 107.62795,100.05177 4.9714,-0.409029 -1.32241,-4.781055 1.66323,6.104894 4.56104,0.0797 -1.93881,-20.961084 -4.96377,0.501306 0.12511,1.662864 -5.13325,0.534256 z"
           id="path3-1-0" /><path
           style="fill:#b1b5bb;fill-opacity:1;stroke:#23191f;stroke-width:0;stroke-linecap:square;stroke-linejoin:bevel;stroke-dasharray:none;stroke-opacity:1;paint-order:normal"
           d="m 106.08809,73.841246 31.93671,6.993467 -7.75709,13.175155 21.40826,13.522192 -33.95089,-9.410272 8.44871,-13.335572 z"
           id="path5-0-5" /><path
           style="fill:#b1b5bb;fill-opacity:1;stroke:#23191f;stroke-width:0;stroke-linecap:square;stroke-linejoin:bevel;stroke-dasharray:none;stroke-opacity:1;paint-order:normal"
           d="m 135.62735,83.913879 -3.72229,5.772173 0.95656,6.130897 2.06171,2.236043 5.64993,0.100257 0.21838,-2.357658 -0.17402,-13.061361 -4.45688,0.204393 z"
           id="path6-3-9" /><path
           style="fill:#b1b5bb;fill-opacity:1;stroke:#23191f;stroke-width:0;stroke-linecap:square;stroke-linejoin:bevel;stroke-dasharray:none;stroke-opacity:1;paint-order:normal"
           d="m 140.04089,82.064915 0.17827,18.777695 4.81465,-0.0989 -0.0561,-4.419863 0.67632,0.03777 -0.0681,6.694473 4.615,0.0541 1.32031,-21.526541 -5.46596,0.02242 -0.75948,2.085471 -0.86875,-1.857937 z"
           id="path7-0-4" /><path
           style="fill:#b1b5bb;fill-opacity:1;stroke:#23191f;stroke-width:0;stroke-linecap:square;stroke-linejoin:bevel;stroke-dasharray:none;stroke-opacity:1;paint-order:normal"
           d="m 159.76682,79.575873 2.80969,22.008057 10.16217,-1.35142 -0.30436,-6.490108 -4.79277,0.250002 -0.0337,-1.080028 4.81812,-0.495486 -0.32816,-8.368921 -0.46817,-4.997447 z"
           id="path9-4-6" /><path
           style="fill:#b1b5bb;fill-opacity:1;stroke:#23191f;stroke-width:0;stroke-linecap:square;stroke-linejoin:bevel;stroke-dasharray:none;stroke-opacity:1;paint-order:normal"
           d="m 175.29284,85.073805 -5.67088,0.423507 2.26318,16.519328 8.60247,-1.48204 -0.38296,-2.738544 -0.91716,-0.813715 -1.18747,-0.926013 -1.57869,-0.765175 z"
           id="path10-4-9" /><path
           style="fill:#b1b5bb;fill-opacity:1;stroke:#23191f;stroke-width:0;stroke-linecap:square;stroke-linejoin:bevel;stroke-dasharray:none;stroke-opacity:1;paint-order:normal"
           d="m 175.10164,82.164782 1.35576,16.706449 9.45685,-1.163012 -0.92833,-5.14536 -3.36581,0.13306 -0.16508,-0.607831 3.23027,-0.09711 -0.98588,-4.278397 -0.21084,-2.209577 -0.88765,-3.469557 z"
           id="path11-4-2" /><path
           style="fill:#b1b5bb;fill-opacity:1;stroke:#23191f;stroke-width:0;stroke-linecap:square;stroke-linejoin:bevel;stroke-dasharray:none;stroke-opacity:1;paint-order:normal"
           d="m 182.00783,83.535474 3.67569,16.443668 4.03141,-0.432306 3.64619,-16.534158 -6.07416,0.01439 -0.18517,0.948138 -0.42527,-0.749821 z"
           id="path12-4-2" /><path
           style="fill:#b1b5bb;fill-opacity:1;stroke:#23191f;stroke-width:0;stroke-linecap:square;stroke-linejoin:bevel;stroke-dasharray:none;stroke-opacity:1;paint-order:normal"
           d="m 191.94295,84.433957 -3.9366,17.155243 12.05678,-1.20016 -0.19405,-3.336353 -0.83504,-3.527418 -0.25638,-5.370423 -0.38756,-3.869345 z"
           id="path13-7-4" /><path
           style="fill:#b1b5bb;fill-opacity:1;stroke:#23191f;stroke-width:0;stroke-linecap:square;stroke-linejoin:bevel;stroke-dasharray:none;stroke-opacity:1;paint-order:normal"
           d="m 196.63525,82.472697 2.35151,18.840263 c 2.55422,-0.30143 6.92984,-0.41681 9.57589,-0.62351 l 6.41427,-26.821726 -3.71013,0.22255 -5.72169,6.620923 -1.05945,6.201712 -1.92054,-4.803124 z"
           id="path14-6-7" /><g
           id="g20-1-5"
           style="fill:#b1b5bb;fill-opacity:1;stroke:#23191f;stroke-width:0;stroke-linecap:square;stroke-linejoin:bevel;stroke-dasharray:none;stroke-opacity:1;paint-order:normal"><path
             id="path22-7-4"
             style="fill:#b1b5bb;fill-opacity:1;stroke:#23191f;stroke-width:0;stroke-linecap:square;stroke-linejoin:bevel;stroke-dasharray:none;stroke-opacity:1;paint-order:normal"
             d="m 117.25433,99.573602 4.05464,-5.24158 0.61876,-1.826125 3.99814,-4.218395 -6.37911,-7.075689 -4.39992,0.704064 z" /></g><g
           id="g23-5-8"
           style="fill:#b1b5bb;fill-opacity:1;stroke:#23191f;stroke-width:0;stroke-linecap:square;stroke-linejoin:bevel;stroke-dasharray:none;stroke-opacity:1;paint-order:normal"><path
             id="path23-9-1"
             style="fill:#b1b5bb;fill-opacity:1;stroke:#23191f;stroke-width:0;stroke-linecap:square;stroke-linejoin:bevel;stroke-dasharray:none;stroke-opacity:1;paint-order:normal"
             d="m 153.26903,101.38573 -3.61738,-0.1548 1.68611,-19.082481 3.82559,-0.247285 6.79741,14.890847 -2.26689,5.527179 -4.28207,-5.496319 -1.18796,0.18141 z" /></g></g></g><g
       id="g24-4"
       style="fill:#1f1b1d;fill-opacity:1;stroke:#23191f;stroke-width:0;stroke-linecap:square;stroke-linejoin:bevel;stroke-dasharray:none;stroke-opacity:1;paint-order:normal"
       transform="matrix(1.0379681,0,0,1.1311973,-3.1777849,-14.571872)"><path
         style="fill:#1f1b1d;fill-opacity:1;stroke:#23191f;stroke-width:0;stroke-linecap:square;stroke-linejoin:bevel;stroke-dasharray:none;stroke-opacity:1;paint-order:normal"
         d="m 92.067339,70.891413 9.105151,31.877057 7.77034,-0.0166 -3.33623,-22.140833 -8.238689,-8.243283 z"
         id="path2-8" /><path
         style="fill:#1f1b1d;fill-opacity:1;stroke:#23191f;stroke-width:0;stroke-linecap:square;stroke-linejoin:bevel;stroke-dasharray:none;stroke-opacity:1;paint-order:normal"
         d="m 107.62795,100.05177 4.9714,-0.409029 -1.32241,-4.781055 1.66323,6.104894 4.56104,0.0797 -1.93881,-20.961084 -4.96377,0.501306 0.12511,1.662864 -5.13325,0.534256 z"
         id="path3-1" /><path
         style="fill:#1f1b1d;fill-opacity:1;stroke:#23191f;stroke-width:0;stroke-linecap:square;stroke-linejoin:bevel;stroke-dasharray:none;stroke-opacity:1;paint-order:normal"
         d="m 106.08809,73.841246 31.93671,6.993467 -7.75709,13.175155 21.40826,13.522192 -33.95089,-9.410272 8.44871,-13.335572 z"
         id="path5-0" /><path
         style="fill:#1f1b1d;fill-opacity:1;stroke:#23191f;stroke-width:0;stroke-linecap:square;stroke-linejoin:bevel;stroke-dasharray:none;stroke-opacity:1;paint-order:normal"
         d="m 135.62735,83.913879 -3.72229,5.772173 0.95656,6.130897 2.06171,2.236043 5.64993,0.100257 0.21838,-2.357658 -0.17402,-13.061361 -4.45688,0.204393 z"
         id="path6-3" /><path
         style="fill:#1f1b1d;fill-opacity:1;stroke:#23191f;stroke-width:0;stroke-linecap:square;stroke-linejoin:bevel;stroke-dasharray:none;stroke-opacity:1;paint-order:normal"
         d="m 140.04089,82.064915 0.17827,18.777695 4.81465,-0.0989 -0.0561,-4.419863 0.67632,0.03777 -0.0681,6.694473 4.615,0.0541 1.32031,-21.526541 -5.46596,0.02242 -0.75948,2.085471 -0.86875,-1.857937 z"
         id="path7-0" /><path
         style="fill:#1f1b1d;fill-opacity:1;stroke:#23191f;stroke-width:0;stroke-linecap:square;stroke-linejoin:bevel;stroke-dasharray:none;stroke-opacity:1;paint-order:normal"
         d="m 159.76682,79.575873 2.80969,22.008057 10.16217,-1.35142 -0.30436,-6.490108 -4.79277,0.250002 -0.0337,-1.080028 4.81812,-0.495486 -0.32816,-8.368921 -0.46817,-4.997447 z"
         id="path9-4" /><path
         style="fill:#1f1b1d;fill-opacity:1;stroke:#23191f;stroke-width:0;stroke-linecap:square;stroke-linejoin:bevel;stroke-dasharray:none;stroke-opacity:1;paint-order:normal"
         d="m 175.29284,85.073805 -5.67088,0.423507 2.26318,16.519328 8.60247,-1.48204 -0.38296,-2.738544 -0.91716,-0.813715 -1.18747,-0.926013 -1.57869,-0.765175 z"
         id="path10-4" /><path
         style="fill:#1f1b1d;fill-opacity:1;stroke:#23191f;stroke-width:0;stroke-linecap:square;stroke-linejoin:bevel;stroke-dasharray:none;stroke-opacity:1;paint-order:normal"
         d="m 175.10164,82.164782 1.35576,16.706449 9.45685,-1.163012 -0.92833,-5.14536 -3.36581,0.13306 -0.16508,-0.607831 3.23027,-0.09711 -0.98588,-4.278397 -0.21084,-2.209577 -0.88765,-3.469557 z"
         id="path11-4" /><path
         style="fill:#1f1b1d;fill-opacity:1;stroke:#23191f;stroke-width:0;stroke-linecap:square;stroke-linejoin:bevel;stroke-dasharray:none;stroke-opacity:1;paint-order:normal"
         d="m 182.00783,83.535474 3.67569,16.443668 4.03141,-0.432306 3.64619,-16.534158 -6.07416,0.01439 -0.18517,0.948138 -0.42527,-0.749821 z"
         id="path12-4" /><path
         style="fill:#1f1b1d;fill-opacity:1;stroke:#23191f;stroke-width:0;stroke-linecap:square;stroke-linejoin:bevel;stroke-dasharray:none;stroke-opacity:1;paint-order:normal"
         d="m 191.94295,84.433957 -3.9366,17.155243 12.05678,-1.20016 -0.19405,-3.336353 -0.83504,-3.527418 -0.25638,-5.370423 -0.38756,-3.869345 z"
         id="path13-7" /><path
         style="fill:#1f1b1d;fill-opacity:1;stroke:#23191f;stroke-width:0;stroke-linecap:square;stroke-linejoin:bevel;stroke-dasharray:none;stroke-opacity:1;paint-order:normal"
         d="m 196.63525,82.472697 2.35151,18.840263 c 2.55422,-0.30143 6.92984,-0.41681 9.57589,-0.62351 l 6.41427,-26.821726 -3.71013,0.22255 -5.72169,6.620923 -1.05945,6.201712 -1.92054,-4.803124 z"
         id="path14-6" /><g
         id="g20-1"
         style="fill:#1f1b1d;fill-opacity:1;stroke:#23191f;stroke-width:0;stroke-linecap:square;stroke-linejoin:bevel;stroke-dasharray:none;stroke-opacity:1;paint-order:normal"><path
           id="path22-7"
           style="fill:#1f1b1d;fill-opacity:1;stroke:#23191f;stroke-width:0;stroke-linecap:square;stroke-linejoin:bevel;stroke-dasharray:none;stroke-opacity:1;paint-order:normal"
           d="m 117.25433,99.573602 4.05464,-5.24158 0.61876,-1.826125 3.99814,-4.218395 -6.37911,-7.075689 -4.39992,0.704064 z" /></g><g
         id="g23-5"
         style="fill:#1f1b1d;fill-opacity:1;stroke:#23191f;stroke-width:0;stroke-linecap:square;stroke-linejoin:bevel;stroke-dasharray:none;stroke-opacity:1;paint-order:normal"><path
           id="path23-9"
           style="fill:#1f1b1d;fill-opacity:1;stroke:#23191f;stroke-width:0;stroke-linecap:square;stroke-linejoin:bevel;stroke-dasharray:none;stroke-opacity:1;paint-order:normal"
           d="m 153.26903,101.38573 -3.61738,-0.1548 1.68611,-19.082481 3.82559,-0.247285 6.79741,14.890847 -2.26689,5.527179 -4.28207,-5.496319 -1.18796,0.18141 z" /></g></g><g
       id="g24"
       style="display:inline;fill:url(#linearGradient25);fill-opacity:1;stroke:#23191f;stroke-width:0;stroke-linecap:square;stroke-linejoin:bevel;stroke-dasharray:none;stroke-opacity:1;paint-order:normal"
       transform="translate(3.5089184,-2.870463)"><path
         style="fill:url(#linearGradient42);fill-opacity:1;stroke:#23191f;stroke-width:0;stroke-linecap:square;stroke-linejoin:bevel;stroke-dasharray:none;stroke-opacity:1;paint-order:normal"
         d="m 91.225782,70.800935 8.541194,32.157975 5.176434,0.0212 -3.13134,-22.334841 -8.324397,-9.150083 z"
         id="path2" /><path
         style="fill:url(#linearGradient43);fill-opacity:1;stroke:#23191f;stroke-width:0;stroke-linecap:square;stroke-linejoin:bevel;stroke-dasharray:none;stroke-opacity:1;paint-order:normal"
         d="m 106.11767,100.05096 2.63931,-0.305212 -1.0792,-8.111646 3.71373,9.261578 2.11216,0.0254 -1.02532,-20.548801 -3.30908,0.297752 1.04142,9.413293 -2.98113,-7.538199 -3.47335,0.381209 z"
         id="path3" /><path
         style="fill:url(#linearGradient44);fill-opacity:1;stroke:#23191f;stroke-width:0;stroke-linecap:square;stroke-linejoin:bevel;stroke-dasharray:none;stroke-opacity:1;paint-order:normal"
         d="m 112.40067,75.181266 22.55663,5.239454 -8.7595,14.768536 18.90747,11.949024 -27.9367,-8.590951 9.07809,-14.918214 z"
         id="path5" /><path
         style="fill:url(#linearGradient45);fill-opacity:1;stroke:#23191f;stroke-width:0;stroke-linecap:square;stroke-linejoin:bevel;stroke-dasharray:none;stroke-opacity:1;paint-order:normal"
         d="m 133.81673,84.724427 -2.59983,4.243345 1.49269,6.809221 1.54446,2.572203 3.08,-0.06401 1.4889,-3.130389 0.0773,-11.734159 -3.04356,0.02771 0.36241,11.513211 -0.90148,0.01884 z"
         id="path6" /><path
         style="fill:url(#linearGradient46);fill-opacity:1;stroke:#23191f;stroke-width:0;stroke-linecap:square;stroke-linejoin:bevel;stroke-dasharray:none;stroke-opacity:1;paint-order:normal"
         d="m 139.46736,82.389151 0.54438,18.659209 2.40598,-0.026 -0.36296,-9.382808 1.35284,3.820525 0.83206,0.01339 1.33044,-4.659884 -0.0582,12.842307 2.32387,0.009 1.66703,-21.732098 -3.4994,0.0029 -2.15908,7.905504 -1.64814,-7.424724 z"
         id="path7" /><path
         style="fill:url(#linearGradient47);fill-opacity:1;stroke:#23191f;stroke-width:0;stroke-linecap:square;stroke-linejoin:bevel;stroke-dasharray:none;stroke-opacity:1;paint-order:normal"
         d="m 160.55125,79.508664 2.65942,21.924106 8.85533,-1.06457 -0.33632,-4.5138 -5.93185,0.357513 -0.20142,-4.065164 4.59158,-0.681176 -0.37885,-4.331975 -4.93671,0.24584 -0.007,-2.630164 5.56677,-1.035087 -0.29776,-4.564237 z"
         id="path9" /><path
         style="fill:url(#linearGradient48);fill-opacity:1;stroke:#23191f;stroke-width:0;stroke-linecap:square;stroke-linejoin:bevel;stroke-dasharray:none;stroke-opacity:1;paint-order:normal"
         d="m 174.1637,86.033437 -3.25227,0.15675 1.8811,15.555193 5.98879,-0.90499 -0.0774,-2.064956 -1.30981,0.02963 -0.0567,-1.447633 -2.23802,0.06154 z"
         id="path10" /><path
         style="fill:url(#linearGradient49);fill-opacity:1;stroke:#23191f;stroke-width:0;stroke-linecap:square;stroke-linejoin:bevel;stroke-dasharray:none;stroke-opacity:1;paint-order:normal"
         d="m 176.33798,82.571674 1.35131,15.757524 8.08151,-0.673647 -0.93403,-3.167568 -4.54831,0.132733 -0.16455,-3.361682 3.88578,-0.373679 -0.87233,-2.733709 -3.26982,0.02074 -0.0441,-2.192012 2.59423,-0.430254 -0.97255,-3.015713 z"
         id="path11" /><path
         style="fill:url(#linearGradient50);fill-opacity:1;stroke:#23191f;stroke-width:0;stroke-linecap:square;stroke-linejoin:bevel;stroke-dasharray:none;stroke-opacity:1;paint-order:normal"
         d="m 182.49808,84.164307 4.57413,15.450486 2.54519,-0.07302 2.53643,-15.775363 -3.23132,0.02096 -1.02283,8.215365 -2.18426,-7.932616 z"
         id="path12" /><path
         style="fill:url(#linearGradient51);fill-opacity:1;stroke:#23191f;stroke-width:0;stroke-linecap:square;stroke-linejoin:bevel;stroke-dasharray:none;stroke-opacity:1;paint-order:normal"
         d="m 192.6335,85.253628 -2.332,16.327602 9.76163,-1.19219 -0.19405,-3.336353 -5.72961,0.342708 0.58261,-3.363848 4.03358,-0.518403 -0.0626,-2.907749 -3.16013,0.138664 0.32252,-2.153824 2.92218,-0.435389 -0.31494,-3.019765 z"
         id="path13" /><path
         style="fill:url(#linearGradient52);fill-opacity:1;stroke:#23191f;stroke-width:0;stroke-linecap:square;stroke-linejoin:bevel;stroke-dasharray:none;stroke-opacity:1;paint-order:normal"
         d="m 198.87597,82.797136 2.07943,18.663584 2.66706,-0.23566 -0.67731,-8.536384 3.34549,8.039474 2.08433,-0.0972 6.27222,-27.127073 -1.1753,0.01053 -5.68689,6.874804 -1.80286,12.807349 -3.58051,-10.684245 z"
         id="path14" /><g
         id="g20"
         style="fill:url(#linearGradient54);fill-opacity:1;stroke:#23191f;stroke-width:0;stroke-linecap:square;stroke-linejoin:bevel;stroke-dasharray:none;stroke-opacity:1;paint-order:normal"><path
           id="path22"
           style="fill:url(#linearGradient53);fill-opacity:1;stroke:#23191f;stroke-width:0;stroke-linecap:square;stroke-linejoin:bevel;stroke-dasharray:none;stroke-opacity:1;paint-order:normal"
           d="m 117.22867,86.852469 -0.95752,0.173313 -0.10068,-1.547797 z m -2.37433,11.328108 2.81576,-3.798091 -1.0066,-4.93167 1.46063,-0.533799 1.17217,2.861133 2.44187,-3.695968 -4.72782,-6.579822 -3.43955,0.530384 z" /></g><g
         id="g23"
         style="fill:url(#linearGradient56);fill-opacity:1;stroke:#23191f;stroke-width:0;stroke-linecap:square;stroke-linejoin:bevel;stroke-dasharray:none;stroke-opacity:1;paint-order:normal"><path
           id="path23"
           style="fill:url(#linearGradient55);fill-opacity:1;stroke:#23191f;stroke-width:0;stroke-linecap:square;stroke-linejoin:bevel;stroke-dasharray:none;stroke-opacity:1;paint-order:normal"
           d="m 152.29965,93.086051 1.71525,-0.01699 -1.23382,-3.144107 z m -0.71124,8.265379 -2.62592,-0.1205 2.31209,-18.56652 2.18185,-0.01344 6.53249,15.082311 -1.45074,3.374999 -3.53301,-4.944333 -2.46283,0.442508 z" /></g></g></g></svg>
